<svg width="1200" height="700" viewBox="0 0 1200 700" fill="none" xmlns="http://www.w3.org/2000/svg">
  <defs>
    <linearGradient id="g" x1="0" y1="0" x2="1200" y2="700" gradientUnits="userSpaceOnUse">
      <stop stop-color="#14F195" stop-opacity="0.55"/>
      <stop offset="0.55" stop-color="#9945FF" stop-opacity="0.55"/>
      <stop offset="1" stop-color="#14F195" stop-opacity="0.35"/>
    </linearGradient>
  </defs>
  <g opacity="0.9" stroke="url(#g)" stroke-width="2" stroke-linecap="round">
    <path d="M80 560H320C356 560 370 542 390 520L520 380C548 352 568 340 610 340H820"/>
    <path d="M160 120H360C410 120 434 146 460 175L560 286C586 315 610 330 650 330H980"/>
    <path d="M240 640V470C240 420 260 395 304 370L420 305"/>
    <path d="M960 70V240C960 292 940 316 896 345L770 420"/>
    <path d="M520 620H820C870 620 898 598 930 566L1100 400"/>
    <circle cx="80" cy="560" r="6" fill="#14F195"/>
    <circle cx="240" cy="640" r="6" fill="#9945FF"/>
    <circle cx="960" cy="70" r="6" fill="#14F195"/>
    <circle cx="1100" cy="400" r="6" fill="#9945FF"/>
  </g>
</svg>
